<svg id="Layer_1" data-name="Layer 1" xmlns="http://www.w3.org/2000/svg" viewBox="0 0 319.74 77.08"><defs><style>.cls-1{fill:#fff;}</style></defs><title>rojkindLogo</title><path class="cls-1" d="M15.25,64.4V14.74h22a16.75,16.75,0,0,1,12.21,4.73,15.57,15.57,0,0,1,4.83,11.58,16.42,16.42,0,0,1-.94,5.58,14.75,14.75,0,0,1-2.2,4.19,20,20,0,0,1-2.58,2.73,9.58,9.58,0,0,1-2.25,1.56l-.9.49L56,64.4H44.68L35.13,47H25.92V64.4Zm28.4-33.35a6.46,6.46,0,0,0-1.93-4.81,6.57,6.57,0,0,0-4.83-1.9h-11V37.46h11a6.7,6.7,0,0,0,4.83-1.85A6.08,6.08,0,0,0,43.65,31.05Z" transform="translate(-15.25 -13.7)"/><path class="cls-1" d="M70.57,57.87a24.61,24.61,0,0,1-7.81-18.3,24.54,24.54,0,0,1,7.81-18.28A26.42,26.42,0,0,1,89.72,13.7a26.44,26.44,0,0,1,19.15,7.59,24.56,24.56,0,0,1,7.8,18.28,24.64,24.64,0,0,1-7.8,18.3,26.4,26.4,0,0,1-19.15,7.6A26.39,26.39,0,0,1,70.57,57.87ZM78.41,28a15.94,15.94,0,0,0-4.64,11.6,15.88,15.88,0,0,0,4.64,11.58,15.92,15.92,0,0,0,22.61,0,15.84,15.84,0,0,0,4.64-11.58A15.9,15.9,0,0,0,101,28a15.87,15.87,0,0,0-22.61,0Z" transform="translate(-15.25 -13.7)"/><path class="cls-1" d="M137.21,14.74h10.66V48.43a16.54,16.54,0,0,1-4.79,12.31q-4.8,4.74-12.59,4.73A16.65,16.65,0,0,1,123.43,64a14.56,14.56,0,0,1-4.64-3l-1.42-1.48L123.74,53a9.11,9.11,0,0,0,.67.78,8,8,0,0,0,2.06,1.28,7.14,7.14,0,0,0,10.74-6.67Z" transform="translate(-15.25 -13.7)"/><path class="cls-1" d="M170.9,14.74V36.38l19.49-21.64h12.4L184.37,35.31,204.21,64.4h-12.4L177.27,43.14,170.9,50.2V64.4H160.23V14.74Z" transform="translate(-15.25 -13.7)"/><path class="cls-1" d="M210.58,64.4V14.74h10.67V64.4Z" transform="translate(-15.25 -13.7)"/><path class="cls-1" d="M267.65,14.74h10.63V64.4h-9.21L244.62,32.85V64.4H234V14.74h9.25l24.45,31.58Z" transform="translate(-15.25 -13.7)"/><path class="cls-1" d="M291,14.74h18.45A24.9,24.9,0,0,1,327.65,22,23.7,23.7,0,0,1,335,39.57a23.74,23.74,0,0,1-7.34,17.63,24.93,24.93,0,0,1-18.18,7.2H291Zm18.45,9.6h-7.79v30.5h7.79A14.26,14.26,0,0,0,320,50.41a14.84,14.84,0,0,0,4.36-10.82,15.05,15.05,0,0,0-4.25-10.82A14.13,14.13,0,0,0,309.47,24.34Z" transform="translate(-15.25 -13.7)"/><path class="cls-1" d="M160.22,90.55V73.65H162v16.9Z" transform="translate(-15.25 -13.7)"/><path class="cls-1" d="M172.89,79v1.69l.14-.2a4,4,0,0,1,.45-.47,4.63,4.63,0,0,1,.74-.6,4.74,4.74,0,0,1,2.4-.66A4.53,4.53,0,0,1,180,80.07a5,5,0,0,1,1.31,3.6v6.88h-1.7V83.67a3.39,3.39,0,0,0-.88-2.45,3,3,0,0,0-2.25-.92,3.45,3.45,0,0,0-2.59,1.08,3.85,3.85,0,0,0-1,2.77v6.4H171.2V79Z" transform="translate(-15.25 -13.7)"/><path class="cls-1" d="M205.46,90.55V83.67a3.61,3.61,0,0,0-.79-2.5,2.71,2.71,0,0,0-2.1-.87,2.85,2.85,0,0,0-2.23,1,4.15,4.15,0,0,0-.91,2.81v6.4h-1.69V83.67a3.59,3.59,0,0,0-.79-2.48,2.68,2.68,0,0,0-2.11-.89,2.84,2.84,0,0,0-2.23,1,4.19,4.19,0,0,0-.9,2.81v6.4H190V79h1.69v1.45a1.18,1.18,0,0,0,.11-.18,3.8,3.8,0,0,1,.36-.4,4.78,4.78,0,0,1,.65-.52,3.81,3.81,0,0,1,.92-.41,3.93,3.93,0,0,1,1.21-.18,5,5,0,0,1,1.46.21,4,4,0,0,1,1.07.51,4.48,4.48,0,0,1,.68.6,3.18,3.18,0,0,1,.42.52l.12.22.13-.22a3,3,0,0,1,.43-.5,5,5,0,0,1,.76-.63,4.76,4.76,0,0,1,1.12-.5,5.46,5.46,0,0,1,1.54-.21A4.24,4.24,0,0,1,205.92,80a5.05,5.05,0,0,1,1.24,3.64v6.88Z" transform="translate(-15.25 -13.7)"/><path class="cls-1" d="M216.72,89a6.17,6.17,0,0,1,0-8.57,5.89,5.89,0,0,1,8.38,0,6.2,6.2,0,0,1,0,8.57,5.89,5.89,0,0,1-8.38,0Zm7.17-1.11a4.67,4.67,0,0,0,0-6.34,4.1,4.1,0,0,0-6,0,4.41,4.41,0,0,0-1.24,3.16,4.47,4.47,0,0,0,1.24,3.17,4.09,4.09,0,0,0,6,0Z" transform="translate(-15.25 -13.7)"/><path class="cls-1" d="M236.47,73.65v7.13a2.76,2.76,0,0,1,.17-.22,6.16,6.16,0,0,1,.51-.5,4.65,4.65,0,0,1,.83-.63,5.48,5.48,0,0,1,1.15-.5,4.92,4.92,0,0,1,1.44-.21,5.14,5.14,0,0,1,3.88,1.78,6.27,6.27,0,0,1,0,8.51,5.16,5.16,0,0,1-3.89,1.78,4.85,4.85,0,0,1-1.43-.21,5.51,5.51,0,0,1-1.16-.51,6.47,6.47,0,0,1-.82-.6,3.61,3.61,0,0,1-.52-.51l-.17-.22v1.81h-1.69V73.65Zm1.26,8a4.51,4.51,0,0,0,0,6.25,3.85,3.85,0,0,0,2.84,1.34,3.54,3.54,0,0,0,2.68-1.3,4.79,4.79,0,0,0,0-6.32,3.54,3.54,0,0,0-2.68-1.3A3.84,3.84,0,0,0,237.73,81.63Z" transform="translate(-15.25 -13.7)"/><path class="cls-1" d="M254,75.87a1,1,0,0,1-.31-.77,1,1,0,0,1,.31-.77,1.09,1.09,0,0,1,1.86.77,1.09,1.09,0,0,1-.31.77,1.12,1.12,0,0,1-1.55,0ZM254,90.55V79h1.68V90.55Z" transform="translate(-15.25 -13.7)"/><path class="cls-1" d="M266.15,73.65v16.9h-1.68V73.65Z" transform="translate(-15.25 -13.7)"/><path class="cls-1" d="M275,75.87a1,1,0,0,1-.31-.77,1,1,0,0,1,.31-.77,1.09,1.09,0,0,1,1.54,0,1,1,0,0,1,.32.77,1.06,1.06,0,0,1-.32.77,1.11,1.11,0,0,1-1.54,0ZM275,90.55V79h1.69V90.55Z" transform="translate(-15.25 -13.7)"/><path class="cls-1" d="M287.88,83.92l4.47-.74a2.76,2.76,0,0,0-.82-2.08,2.8,2.8,0,0,0-2.08-.8,3.69,3.69,0,0,0-1.73.42,3.61,3.61,0,0,0-1.17.85l-.37.41L285.1,80.9a2.79,2.79,0,0,1,.19-.24,5.73,5.73,0,0,1,.54-.52,7.87,7.87,0,0,1,.88-.67,4.77,4.77,0,0,1,1.21-.52,5,5,0,0,1,1.53-.23A4.46,4.46,0,0,1,292.73,80a4.29,4.29,0,0,1,1.3,3.18v7.37h-1.68V89a1.46,1.46,0,0,1-.15.2,5.12,5.12,0,0,1-.45.43,4.58,4.58,0,0,1-.75.56,4.63,4.63,0,0,1-1.05.43,5.12,5.12,0,0,1-1.35.19,4.27,4.27,0,0,1-2.92-1,3,3,0,0,1-1.18-2.34,3.19,3.19,0,0,1,.87-2.34A4.37,4.37,0,0,1,287.88,83.92Zm.72,5.3a3.62,3.62,0,0,0,2.69-1.07,3.78,3.78,0,0,0,1.06-2.78v-.74l-4,.74c-1.44.27-2.17.95-2.18,2a1.61,1.61,0,0,0,.64,1.29A2.79,2.79,0,0,0,288.6,89.22Z" transform="translate(-15.25 -13.7)"/><path class="cls-1" d="M308.75,78.72v1.69H308a3.54,3.54,0,0,0-2.56,1,3.59,3.59,0,0,0-1.06,2.7v6.4h-1.68V79h1.68v1.57l.14-.19a4.78,4.78,0,0,1,.45-.44,5.06,5.06,0,0,1,.76-.55,4.62,4.62,0,0,1,1.09-.44,5.09,5.09,0,0,1,1.43-.19Z" transform="translate(-15.25 -13.7)"/><path class="cls-1" d="M315.93,75.87a1,1,0,0,1-.31-.77,1,1,0,0,1,.31-.77,1.09,1.09,0,0,1,1.86.77,1.09,1.09,0,0,1-.31.77,1.12,1.12,0,0,1-1.55,0Zm-.06,14.68V79h1.68V90.55Z" transform="translate(-15.25 -13.7)"/><path class="cls-1" d="M328.78,83.92l4.47-.74a2.79,2.79,0,0,0-.81-2.08,2.84,2.84,0,0,0-2.09-.8,3.71,3.71,0,0,0-1.73.42,3.61,3.61,0,0,0-1.17.85l-.37.41L326,80.9a2.79,2.79,0,0,1,.19-.24,6.28,6.28,0,0,1,.55-.52,7,7,0,0,1,.87-.67,4.77,4.77,0,0,1,1.21-.52,5,5,0,0,1,1.53-.23A4.46,4.46,0,0,1,333.63,80a4.29,4.29,0,0,1,1.3,3.18v7.37h-1.68V89a1.46,1.46,0,0,1-.15.2,4,4,0,0,1-.45.43,4.58,4.58,0,0,1-.75.56,4.44,4.44,0,0,1-1,.43,5.12,5.12,0,0,1-1.35.19,4.29,4.29,0,0,1-2.92-1,3,3,0,0,1-1.18-2.34,3.19,3.19,0,0,1,.87-2.34A4.37,4.37,0,0,1,328.78,83.92Zm.72,5.3a3.62,3.62,0,0,0,2.69-1.07,3.78,3.78,0,0,0,1.06-2.78v-.74l-4,.74c-1.44.27-2.17.95-2.18,2a1.6,1.6,0,0,0,.65,1.29A2.76,2.76,0,0,0,329.5,89.22Z" transform="translate(-15.25 -13.7)"/></svg>